#N canvas 1076 222 631 434 12;
#X obj 40 40 inlet;
#X obj 40 320 outlet~;
#X msg 40 80 1 \, 0.5 5 \, 0 \$1 5;
#X obj 40 120 vline~;
#X obj 40 160 *~;
#X obj 40 200 *~ 80;
#X obj 40 240 +~ 29;
#X obj 40 280 mtof~;
#X text 40 20 Pitch scale;
#X connect 0 0 2 0;
#X connect 2 0 3 0;
#X connect 3 0 4 0;
#X connect 3 0 4 1;
#X connect 4 0 5 0;
#X connect 5 0 6 0;
#X connect 6 0 7 0;
#X connect 7 0 1 0;
