#N canvas 960 60 960 995 12;
#X obj 0 360 cnv 15 315 249 empty empty DSP\ Monitoring 18 10 0 20
#a70083 #f98eff 0;
#X obj 1892 852 cnv 15 1271 493 empty empty Drums\ Init\ and\ Stuff
35 12 0 20 #597f00 #c7ff7a 0;
#X obj 1912 892 cnv 15 571 390 empty empty Kick 20 12 0 20 #ada200
#fffab9 0;
#X obj 0 600 cnv 15 1138 389 empty empty Drums\ Control 20 12 0 20
#597f00 #c7ff7a 0;
#X obj 20 640 cnv 15 512 322 empty empty Kick 20 12 0 20 #ada200 #fffab9
0;
#X obj 1800 1900 cnv 15 1675 449 empty empty Instruments\ stuff 19
9 0 20 #8c3f00 #ffffff 0;
#X obj 0 1980 cnv 15 618 428 empty empty DSP\ Init\ and\ Stuff 20 12
0 20 #a70083 #f98eff 0;
#X obj 0 20 cnv 15 325 319 empty empty DSP\ Control 20 12 0 20 #a70083
#f98eff 0;
#X obj 640 1960 cnv 15 1154 477 empty empty Miscellaneous 19 9 0 20
#444444 #ffffff 0;
#X obj 1520 1360 cnv 15 630 524 empty empty Random\ samplers\ Stuff
20 10 0 20 #aa0000 #c99595 0;
#X obj 980 1360 cnv 15 521 547 empty empty Harmony\ Init\ and\ Stuff
20 10 0 20 #004e4d #00fff3 0;
#X obj 640 1640 cnv 15 302 257 empty empty Tonality\ Init\ and\ Stuff
19 9 0 20 #00082e #7073fa 0;
#X obj 0 1360 cnv 15 613 591 empty empty Beat\ Init\ and\ Stuff 20
9 0 20 #074a00 #b9f200 0;
#X obj 20 1400 tgl 72 0 empty \$0-beat_on BeatOn 17 7 0 14 #fcfcfc
#000000 #000000 1 1;
#X obj 100 1460 util/metro_beat;
#X obj 260 1660 *;
#X floatatom 260 1700 5 0 0 2 SubsPerMeasure - #0-subs_per_measure
, f 5;
#X obj 280 1620 t b f;
#X obj 20 1500 bng 71 250 50 0 empty empty BeatReset 17 8 0 14 #fcfcfc
#000000 #000000;
#X obj 660 2080 loadbang;
#X obj 1080 1740 r \$0-tonality;
#X obj 100 1400 r \$0-beat_reset, f 16;
#X obj 220 1400 r \$0-bpm;
#X obj 280 1400 r \$0-beats_per_measure;
#X obj 440 1400 r \$0-subs_per_beat;
#X obj 100 1500 s \$0-measure;
#X obj 200 1500 s \$0-beat;
#X obj 280 1500 s \$0-subbeat;
#X obj 260 1580 r \$0-beats_per_measure;
#X obj 280 1600 r \$0-subs_per_beat;
#X obj 440 1660 *;
#X floatatom 440 1700 5 0 0 2 SubsPerMinute - #0-subs_per_minute,
f 5;
#X obj 460 1620 t b f;
#X obj 460 1600 r \$0-subs_per_beat;
#X floatatom 420 1560 5 0 0 2 MeasuresPerMinute - #0-measures_per_minute
, f 5;
#X obj 440 1480 t b f;
#X obj 440 1460 r \$0-beats_per_measure;
#X obj 420 1520 /;
#X obj 440 1580 r \$0-bpm;
#X obj 440 1440 r \$0-bpm;
#X obj 660 1680 loadbang;
#X obj 660 1720 s \$0-ctrl-tonality-mode;
#X obj 660 1800 r \$0-tonality-key;
#X obj 680 1820 r \$0-tonality-mode;
#X obj 660 1840 pack f f;
#X obj 660 1860 s \$0-tonality;
#X msg 660 1740 names A Bb B C Db Eb E F Gb G Ab;
#X obj 660 1760 s \$0-ctrl-tonality-key;
#X msg 100 1660 number \$1;
#X msg 20 1620 number \$1;
#X obj 20 1600 r \$0-beats_per_measure;
#X obj 100 1640 r \$0-subs_per_beat;
#X obj 20 1700 s \$0-vis-beat;
#X obj 20 1580 r \$0-beat;
#X obj 100 1620 r \$0-subbeat;
#X obj 120 1700 s \$0-vis-subbeat;
#X msg 660 1700 names minor major;
#X obj 300 1840 r \$0-bpm;
#X obj 240 1780 r \$0-beat;
#X obj 240 1920 s \$0-beat_params;
#X obj 0 1760 r \$0-measure;
#X obj 60 1800 r \$0-measures_per_minute;
#X obj 20 1920 s \$0-measure_params;
#X obj 420 1780 r \$0-subbeat;
#X obj 480 1840 r \$0-subs_per_minute;
#X obj 436 1911 s \$0-subbeat_params;
#X msg 100 1440 reset;
#X obj 1000 1640 r \$0-harmony_section_params;
#X obj 1120 1700 r \$0-harmony_chords;
#X obj 1160 1720 r \$0-harmony_octave;
#X obj 1200 1760 r \$0-harmony_dur;
#X obj 1180 1740 r \$0-harmony_vel;
#X msg 20 1800 1;
#X obj 20 1780 loadbang;
#X obj 0 1900 pack f f f;
#X obj 260 1800 r \$0-beats_per_measure;
#X obj 240 1900 pack f f f;
#X obj 440 1800 r \$0-subs_per_beat;
#X obj 436 1891 pack f f f;
#X obj 1000 1820 util/chord_to_midi;
#X obj 1000 1720 util/chord_sync;
#X obj 1000 1840 s \$0-harmony_midi;
#X text 700 2780 Hullo;
#X text 3940 760 Heya;
#X floatatom 1580 1740 5 0 0 0 - - -, f 5;
#X msg 1540 1420 seed \$1;
#X msg 1680 1440 resolution \$1;
#X obj 1680 1420 r \$0-gaussian_res;
#X obj 1540 1400 r \$0-random_seed;
#X obj 1580 1640 expr $f1 * $f3 + $f2;
#X floatatom 1540 1720 5 0 0 0 - - -, f 5;
#X obj 660 2260 r \$0-gaussian_res-log;
#X obj 660 2300 s \$0-gaussian_res;
#X obj 660 2280 expr pow(2 \, max(0 \, $f1));
#X obj 660 2200 r \$0-ctrl-random_seed;
#X obj 660 2220 s \$0-random_seed;
#X obj 1680 1600 r \$0-harmony_dur-std;
#X obj 1620 1580 r \$0-harmony_dur-mean;
#X obj 1620 1680 s \$0-harmony_dur;
#X obj 1700 1520 s \$0-harmony_dur-sampler_in;
#X obj 1560 1560 r \$0-harmony_dur-sampler_out;
#X obj 1540 1440 s \$0-samplers;
#X obj 1660 1400 r \$0-samplers;
#X obj 1660 1460 s \$0-samplers-float;
#X obj 1840 1400 r \$0-samplers;
#X obj 1840 1480 s \$0-samplers-int;
#X obj 1880 1640 s \$0-harmony_octave-sampler_in;
#X obj 1840 1620 r \$0-samplers-int;
#X obj 1040 1560 s \$0-harmony_octave-sampler_in;
#X obj 1032 1406 r \$0-harmony_octave-sampler_reset;
#X obj 1040 1520 list prepend reset;
#X obj 1040 1540 list trim;
#X obj 1035 1462 loadbang;
#X msg 1032 1426 bang;
#X obj 1040 1500 util/read_list ../../data/arr_probs/harmony_octave.txt
;
#X obj 1980 1660 r \$0-samplers-float;
#X obj 1880 1720 s \$0-harmony_dur-sampler_in;
#X obj 1840 1700 r \$0-harmony_section_params;
#X obj 1880 1600 r \$0-harmony_section_params;
#X obj 1220 1860 s \$0-ctrl-harmony_section_select;
#X obj 1220 1820 loadbang;
#X msg 1220 1840 set 0;
#X obj 1620 1660 clip 0.1 2;
#X obj 1820 2000 pack f f f;
#X obj 1820 1960 poly 4;
#X msg 660 2380 \; pd dsp \$1;
#X obj 1092 32 cnv 15 923 482 empty empty Harmony\ Control 20 10 0
20 #004e4d #00fff3 0;
#X obj 852 32 cnv 15 236 315 empty empty Tonality\ Control 20 9 0 20
#00082e #7073fa 0;
#X obj 332 352 cnv 15 516 158 empty empty Beat\ Monitoring 18 12 0
20 #074a00 #b9f200 0;
#X obj 352 392 bng 113 250 50 0 empty \$0-measure Measure 17 7 0 14
#fcfcfc #000000 #000000;
#X obj 332 32 cnv 15 513 311 empty empty Beat\ Control 20 12 0 20 #074a00
#b9f200 0;
#X msg 620 140 \; \$0-ctrl-subs_per_beat 4 \; \$0-ctrl-beats_per_measure
3 \; \$0-ctrl-bpm 120 \; \$0-ctrl-beat_on 1 \;;
#X obj 452 72 bng 79 250 50 0 \$0-beat_reset \$0-ctrl-beat_reset BeatReset
17 7 0 14 #fcfcfc #000000 #000000;
#X text 632 352 Note: - Set the subs_per_beat before the bpm - Set
the beat_on message last. Otherwise the metronome won't start on first
try., f 31;
#X obj 1360 100 t b b b b;
#X msg 1380 120 0 0 4 7;
#X msg 1380 160 2 5 9 0 2;
#X obj 352 72 tgl 79 0 \$0-beat_on \$0-ctrl-beat_on BeatOn 17 7 0 14
#fcfcfc #000000 #000000 1 1;
#X obj 352 212 hradio 26 0 0 9 \$0-beats_per_measure \$0-ctrl-beats_per_measure
Beats/Measure 0 -8 0 14 #fcfcfc #000000 #000000 4;
#X obj 352 252 hradio 26 0 0 9 \$0-subs_per_beat \$0-ctrl-subs_per_beat
Subbeat/Beat 0 -8 0 14 #fcfcfc #000000 #000000 4;
#X obj 352 172 hsl 194 26 20 220 0 0 \$0-bpm \$0-ctrl-bpm Beats/Minute
-2 -8 0 14 #000000 #000000 #00ff2c 2795 1;
#X floatatom 512 152 5 0 0 0 - #0-bpm -, f 5;
#X floatatom 552 192 5 0 0 0 - #0-beats_per_measure -, f 5;
#X floatatom 552 232 5 0 0 0 - #0-subs_per_beat -, f 5;
#X obj 472 392 hradio 46 0 0 4 empty \$0-vis-beat Beat 0 -8 0 14 #fcfcfc
#000000 #000000 2;
#X obj 472 452 hradio 48 0 0 4 empty \$0-vis-subbeat Subbeat 0 -8 0
14 #fcfcfc #000000 #000000 2;
#X dropdown 892 112 11 0 0 2 Mode #0-ctrl-tonality-mode #0-tonality-mode
, f 11;
#X dropdown 892 72 11 0 0 2 Key #0-ctrl-tonality-key #0-tonality-key
, f 11;
#X obj 1120 180 vsl 32 86 0 127 0 0 \$0-harmony_vel \$0-ctrl-harmony_vel
Velocity 0 -9 0 14 #fcfcfc #000000 #000000 2008 1;
#X obj 1380 200 s \$0-harmony_chords;
#X dropdown 1240 100 11 1 0 2 Section #0-ctrl-harmony_section_select
#0-harmony_section_select, f 11;
#X obj 1360 60 loadbang;
#X msg 620 240 \; \$0-ctrl-beat_on 0 \; \$0-ctrl-beat_reset bang \;
;
#X msg 620 40 \; \$0-ctrl-subs_per_beat 4 \; \$0-ctrl-beats_per_measure
4 \; \$0-ctrl-bpm 50 \; \$0-ctrl-beat_on 1 \;;
#X obj 1120 320 util/sample_gaussian_ord;
#X msg 1120 300 reset;
#X obj 652 1372 cnv 15 302 257 empty empty Miscellaneous\ Control 12
9 0 20 #444444 #ffffff 0;
#X floatatom 680 1400 5 0 0 2 RandomSeed #0-ctrl-seed #0-seed, f 5
;
#X obj 680 1440 hradio 26 0 0 6 \$0-gaussian_res-log \$0-ctrl-gaussian_res-log
Gaussian\ Resolution 0 -8 0 14 #fcfcfc #000000 #000000 5;
#X floatatom 900 1440 5 0 0 0 - #0-gaussian_res -, f 5;
#X obj 1120 480 s \$0-harmony_dur-sampler_out;
#X obj 1180 200 hsl 117 27 0.1 2 0 0 \$0-harmony_dur-mean \$0-ctrl-harmony_dur-mean
Duration\ (sections) -2 -8 0 14 #000000 #000000 #00ff2c 2974 1;
#X obj 1180 240 hsl 55 27 0 1 0 0 \$0-harmony_dur-std \$0-ctrl-harmony_dur-std
Duration\ std\ (rate) -2 -8 0 14 #000000 #000000 #00ff2c 54 1;
#X obj 1400 320 util/sample_int 5;
#X msg 1400 300 uniform, f 9;
#X obj 1400 280 r \$0-harmony_octave-sampler_in;
#X msg 1480 300 reset;
#X obj 1540 300 s \$0-harmony_octave-sampler_reset;
#X obj 1420 480 s \$0-harmony_octave;
#X obj 1120 280 r \$0-harmony_dur-sampler_in;
#X obj 1820 1940 r \$0-harmony_midi;
#X obj 1180 300 r \$0-harmony_dur-sampler_reset;
#X msg 892 152 \; \$0-ctrl-tonality-key 0 \; \$0-ctrl-tonality-mode
1 \;, f 25;
#X msg 892 232 \; \$0-ctrl-tonality-key 5 \; \$0-ctrl-tonality-mode
0 \;, f 25;
#X msg 1380 180 3 5 9 0 4;
#X obj 1680 340 loadbang;
#X msg 1380 140 1 0 4 7 11;
#X obj 240 400 vu 45 160 \$0-dsp-out_db_vis_2 empty -1 -8 0 10 #404040
#000000 1 0;
#X obj 180 400 vu 54 160 \$0-dsp-out_db_vis_1 OUT\ (DB) -1 -8 0 20
#404040 #000000 0 0;
#X obj 340 2340 - 100;
#X obj 300 2300 - 100;
#X obj 300 2260 env~;
#X obj 340 2260 env~;
#X obj 300 2320 s \$0-dsp-out_db_vis_1;
#X obj 360 2360 s \$0-dsp-out_db_vis_2;
#X obj 80 2340 - 100;
#X obj 40 2300 - 100;
#X obj 40 2280 env~;
#X obj 80 2280 env~;
#X obj 40 2020 adc~, f 6;
#X obj 40 2100 send~ \$0-dsp-in_1;
#X obj 20 2200 receive~ \$0-dsp-in_1;
#X obj 40 2220 receive~ \$0-dsp-in_2;
#X obj 80 400 vu 45 160 \$0-dsp-in_db_vis_2 empty -1 -8 0 10 #404040
#000000 1 0;
#X obj 20 400 vu 54 160 \$0-dsp-in_db_vis_1 IN\ (DB) -1 -8 0 20 #404040
#000000 0 0;
#X obj 40 2320 s \$0-dsp-in_db_vis_1;
#X obj 100 2360 s \$0-in-out_db_vis_2;
#X obj 140 60 vsl 56 96 0 1 0 0 \$0-dsp-gain_in \$0-ctrl-dsp-gain_in
Gains\ (IN\ -\ OUT) 0 -12 0 20 #fcfcfc #000000 #000000 9500 1;
#X obj 220 60 vsl 48 98 0 1 0 0 \$0-dsp-gain_out \$0-ctrl-dsp-gain_out
empty 0 -9 0 20 #fcfcfc #000000 #000000 4850 1;
#X obj 220 2080 *~;
#X obj 260 2080 *~;
#X obj 280 2060 r \$0-dsp-gain_out;
#X obj 40 2060 *~;
#X obj 80 2060 *~;
#X obj 100 2020 r \$0-dsp-gain_in;
#X obj 20 60 tgl 96 0 \$0-dsp-on \$0-ctrl-dsp-on DSPOn 17 7 0 14 #fcfcfc
#000000 #000000 0 1;
#X obj 660 2360 r \$0-dsp-on;
#X msg 760 2380 \; \$0-ctrl-dsp-on 0 \;;
#X obj 760 2360 loadbang;
#X obj 80 2120 send~ \$0-dsp-in_2;
#X obj 1820 2040 clone util/midi_to_triangle~ 5;
#X obj 1500 100 t b b b b;
#X msg 1520 160 2 5 9 0 2;
#X obj 1520 200 s \$0-harmony_chords;
#X msg 1520 180 3 5 9 0 4;
#X msg 1520 120 0 7 11 14 7;
#X msg 1360 80 bang;
#X msg 1500 80 bang;
#X msg 1520 140 1 9 12 16 17;
#X obj 1400 480 + 3;
#X dropdown 240 680 11 1 0 2 Section #0-ctrl-kick-section_select #0-kick-section_select
, f 11;
#X obj 940 1980 loadbang;
#X msg 980 2020 names measure beat subbeat;
#X obj 960 2060 s \$0-section_select;
#X obj 940 2000 t b b;
#X msg 944 2037 0;
#X obj 940 2100 r \$0-section_select;
#X obj 940 2180 s \$0-ctrl-harmony_section_select;
#X obj 1000 2140 s \$0-ctrl-kick-section_select;
#X obj 1080 2260 r \$0-beat_params;
#X obj 1120 2280 r \$0-subbeat_params;
#X obj 1040 2240 r \$0-measure_params;
#X obj 980 2220 r \$0-harmony_section_select;
#X obj 980 2340 s \$0-harmony_section_params;
#X obj 980 2300 util/choose_section_params;
#X obj 1320 2020 r \$0-beat_params;
#X obj 1360 2040 r \$0-subbeat_params;
#X obj 1280 2000 r \$0-measure_params;
#X obj 1220 2060 util/choose_section_params;
#X obj 1220 1980 r \$0-kick-section_select;
#X obj 1220 2100 s \$0-kick-section_params;
#X obj 1940 1220 s \$0-kick-rate-sampler_in;
#X obj 2040 1180 r \$0-samplers-int;
#X obj 140 780 r \$0-kick-rate-sampler_in;
#X obj 140 800 util/sample_bernoulli;
#X obj 320 800 util/impact/impact~;
#X obj 320 780 r \$0-kick-impact_in;
#X obj 140 940 s \$0-kick-rate-sampler_out;
#X obj 1940 960 r \$0-kick-rate-sampler_out;
#X obj 1940 1000 spigot;
#X msg 1940 1060 bang;
#X obj 60 840 vsl 32 86 0 3 0 0 \$0-kick-gain \$0-ctrl-kick-gain Gain
0 -9 0 14 #fcfcfc #000000 #000000 7083 1;
#X obj 2180 980 loadbang;
#X obj 2040 2080 *~;
#X obj 2020 1940 receive~ \$0-kick-impact;
#X obj 340 940 send~ \$0-kick-impact;
#X obj 1120 80 tgl 79 0 \$0-harmony-on \$0-ctrl-harmony-on HarmonyOn
17 7 0 14 #fcfcfc #000000 #000000 1 1;
#X obj 1000 1680 spigot;
#X obj 1080 1660 r \$0-harmony-on;
#X obj 40 680 tgl 79 0 \$0-kick-on \$0-ctrl-kick-on KickOn 17 7 0 14
#fcfcfc #000000 #000000 1 1;
#X obj 1940 1180 spigot;
#X obj 2000 1140 r \$0-kick-on;
#X obj 420 2000 loadbang;
#X obj 540 640 cnv 15 529 323 empty empty Snare 20 12 0 20 #ada200
#fffab9 0;
#X dropdown 760 680 11 1 0 2 Section #0-ctrl-snare-section_select #0-snare-section_select
, f 11;
#X obj 640 800 util/sample_bernoulli;
#X obj 840 800 util/impact/impact~;
#X obj 560 820 vsl 32 86 0 3 0 0 \$0-snare-gain \$0-ctrl-snare-gain
Gain 0 -9 0 14 #fcfcfc #000000 #000000 2833 1;
#X obj 560 680 tgl 79 0 \$0-snare-on \$0-ctrl-snare-on SnareOn 17 7
0 14 #fcfcfc #000000 #000000 1 1;
#X obj 640 780 r \$0-snare-rate-sampler_in;
#X obj 640 940 s \$0-snare-rate-sampler_out;
#X obj 840 780 r \$0-snare-impact_in;
#X obj 840 940 send~ \$0-snare-impact;
#X obj 1600 2020 r \$0-beat_params;
#X obj 1640 2040 r \$0-subbeat_params;
#X obj 1560 2000 r \$0-measure_params;
#X obj 1500 2060 util/choose_section_params;
#X obj 1500 1980 r \$0-snare-section_select;
#X obj 1500 2100 s \$0-snare-section_params;
#X obj 980 2161 s \$0-ctrl-snare-section_select;
#X obj 2200 2080 *~;
#X obj 2200 1940 receive~ \$0-snare-impact;
#X obj 2500 900 cnv 15 569 383 empty empty Snare 20 12 0 20 #ada200
#fffab9 0;
#X obj 2620 1180 r \$0-samplers-int;
#X obj 2520 992 spigot;
#X msg 2520 1012 bang;
#X obj 2760 980 loadbang;
#X obj 2520 1172 spigot;
#X obj 2520 960 r \$0-snare-rate-sampler_out;
#X obj 2520 1240 s \$0-snare-rate-sampler_in;
#X obj 2580 1140 r \$0-snare-on;
#X obj 620 20 loadbang;
#X obj 0 1000 cnv 15 1150 342 empty empty Synth\ Control 9 23 0 20
#930101 #ff9c8a 0;
#X obj 2160 1360 cnv 15 1235 533 empty empty I/O\ Init\ and\ Stuff
9 23 0 20 #930101 #ff9c8a 0;
#X obj 2180 1420 notein;
#X obj 2280 1420 key;
#X obj 2180 1520 pack f f;
#X obj 2280 1540 pack f f;
#X obj 2180 1580 s \$0-io-midi;
#X msg 2320 1520 127;
#X obj 2280 1480 t f b;
#X msg 1680 360 \; \$0-ctrl-harmony-on 1 \; \$0-harmony_octave-sampler_reset
bang \; \$0-harmony_dur-sampler_reset bang \; \$0-ctrl-harmony_vel
30 \; \$0-ctrl-harmony_dur-mean 0.8 \; \$0-ctrl-harmony_dur-std 0.01
\;;
#X obj 2412 1932 r \$0-io-midi;
#X obj 2412 2012 pack f f f;
#X obj 2412 1972 poly 8 1;
#X obj 2520 2000 r \$0-phonogene-in;
#X obj 2440 1600 soundfiler;
#X obj 2400 1400 loadbang;
#X msg 2440 1580 all ref_tone 41;
#X obj 2400 1620 s \$0-phonogene-in;
#X obj 2400 1420 s \$0-phonogene-reset_sample;
#X obj 2400 1480 r \$0-phonogene-reset_sample;
#X obj 140 680 bng 79 250 50 0 \$0-kick-impact_in \$0-ctrl-kick-impact_in
Hit 17 7 0 20 #fcfcfc #000000 #000000;
#X obj 1940 1060 s \$0-ctrl-kick-impact_in;
#X obj 2520 1040 s \$0-ctrl-snare-impact_in;
#X obj 660 680 bng 77 250 50 0 \$0-snare-impact_in \$0-ctrl-snare-impact_in
Hit 17 7 0 20 #fcfcfc #000000 #000000;
#X msg 2760 1100 \; \$0-ctrl-snare-impact_in decay 50 \; \$0-ctrl-snare-impact_in
noise 0.8 \; \$0-ctrl-snare-impact_in pitch 0.7 \; \$0-ctrl-snare-impact_in
vcf_freq 850 \; \$0-ctrl-snare-impact_in vcf_q 0.1 \;;
#X msg 2180 1100 \; \$0-ctrl-kick-impact_in decay 500 \; \$0-ctrl-kick-impact_in
noise 0.1 \; \$0-ctrl-kick-impact_in pitch 0.7 \; \$0-ctrl-kick-impact_in
vcf_freq 20 \; \$0-ctrl-kick-impact_in vcf_q 0.8 \;;
#X obj 2220 1240 r \$0-ctrl-kick-impact_in;
#X obj 2220 1260 s \$0-kick-impact_in;
#X obj 2760 1240 r \$0-ctrl-snare-impact_in;
#X obj 2760 1260 s \$0-snare-impact_in;
#X obj 2360 2060 r \$0-phonogene-gain;
#X obj 2340 2080 *~;
#X msg 2520 1140 bang;
#X obj 2520 1100 r \$0-snare-section_params;
#X obj 1940 1100 r \$0-kick-section_params;
#X msg 1940 1120 bang;
#X msg 1860 1440 resolution \$1;
#X obj 1860 1420 r \$0-binomial_res;
#X obj 680 1480 hradio 26 0 0 8 \$0-binomial_res-log \$0-ctrl-binomial_res-log
Binomial\ Resolution 0 -8 0 14 #fcfcfc #000000 #000000 7;
#X floatatom 900 1480 5 0 0 0 - #0-binomial_res -, f 5;
#X msg 660 2100 \; \$0-ctrl-random_seed 22 \; \$0-ctrl-gaussian_res-log
5 \; \$0-ctrl-binomial_res-log 100 \;;
#X obj 800 2320 expr pow(2 \, max(0 \, $f1));
#X obj 800 2300 r \$0-binomial_res-log;
#X obj 800 2340 s \$0-binomial_res;
#X obj 2380 1700 bonk~;
#X obj 2340 1680 receive~ \$0-dsp-in_1;
#X obj 2200 1680 t b b;
#X obj 2185 1797 s \$0-phonogene-in;
#X msg 2200 1760 all ref_tone 69;
#X obj 2340 1720 util/wait;
#X text 2420 1740 Wait for the first attack before firing;
#X msg 420 2020 \; \$0-ctrl-dsp-on \; \$0-ctrl-dsp-gain_in 1 \; \$0-ctrl-dsp-gain_out
0.5 \;;
#X msg 2640 1360 \; \$0-ctrl-phonogene-gain 3 \;;
#X obj 240 1040 cnv 15 600 277 empty empty Phonogène 22 13 0 20 #f96f6f
#ffdbd5 0;
#N canvas 0 0 450 300 (subpatch) 0;
#X array \$0-phonogene-record_buffer 11635 float 4 black #00ff3b;
#X coords 0 1 11634 -1 200 140 1;
#X restore 400 1140 graph;
#X obj 260 1080 bng 77 250 50 0 \$0-phonogene-record_start empty Record
17 7 0 20 #000000 #ff0000 #ffb9b9;
#X obj 480 1120 s \$0-phonogene-reset_sample;
#X obj 280 1200 vsl 32 86 0 20 0 0 \$0-phonogene-gain \$0-ctrl-phonogene-gain
Gain 0 -9 0 14 #fcfcfc #000000 #000000 3700 1;
#X obj 20 1040 cnv 15 197 260 empty empty Mic 22 11 0 20 #f96f6f #ffdbd5
0;
#X obj 40 1180 vsl 32 86 0 20 0 0 \$0-io-gain_1 \$0-ctrl-io-gain_1
Gains 0 -9 0 20 #fcfcfc #000000 #000000 2125 1;
#X obj 80 1180 vsl 32 86 0 20 0 0 \$0-io-gain_2 \$0-ctrl-io-gain_2
Gain 0 -9 0 4 #fcfcfc #000000 #000000 2125 1;
#X obj 40 1080 tgl 79 0 \$0-io-on_1 \$0-ctrl-io-on_1 GOn 17 7 0 14
#fcfcfc #000000 #000000 1 1;
#X obj 120 1080 tgl 79 0 \$0-io-on_2 \$0-ctrl-io-on_2 DOn 17 7 0 14
#fcfcfc #000000 #000000 1 1;
#X obj 2760 1620 loadbang;
#X obj 2760 1940 receive~ \$0-dsp-in_1;
#X obj 2820 2020 receive~ \$0-dsp-in_2;
#X obj 2760 2100 *~;
#X obj 2800 2100 *~;
#X obj 2800 1960 r \$0-io-gain_1;
#X obj 2860 2040 r \$0-io-gain_2;
#X obj 2800 1980 r \$0-io-on_1;
#X obj 2860 2060 r \$0-io-on_2;
#X obj 2200 1640 r \$0-phonogene-record_start;
#X obj 2340 1760 tabwrite~ \$0-phonogene-record_buffer;
#X msg 2400 1500 all set symbol \$0-phonogene-record_buffer;
#X obj 2320 2040 clone util/phonogene~ 9 -s 1 -x \$0-phonogene-record_buffer
;
#X obj 2180 940 r \$0-kick-reset;
#X obj 2840 940 r \$0-snare-reset;
#X msg 340 760 reset;
#X msg 860 760 reset;
#X obj 380 760 s \$0-kick-reset;
#X obj 920 760 s \$0-snare-reset;
#X obj 20 180 tgl 145 0 \$0-io-record empty Recording 17 7 0 14 #000000
#ff0000 #ff0000 0 1;
#X obj 2920 1600 writesf~ 2;
#X obj 2920 1380 r \$0-io-record;
#X obj 2920 1420 select 0;
#X obj 2980 1460 t b b;
#X msg 2960 1500 start;
#X msg 2920 1460 stop;
#X msg 3000 1540 open ../out/output_bb.wav;
#X obj 400 1120 openpanel;
#X msg 400 1100 bang;
#X msg 2440 1560 read -resize \$1 \$0-phonogene-record_buffer, f 44
;
#X msg 640 1100 bang;
#X msg 600 1100 reset;
#X obj 2460 1520 symbol ../samples/ducky_duck.wav;
#X obj 140 1240 hsl 65 26 0 1 0 0 \$0-io-delay-dry_wet \$0-ctrl-io-delay-dry_wet
Dry/Wet -2 -8 0 20 #fcfcfc #000000 #000000 0 1;
#X obj 140 1200 hsl 65 26 0 2000 0 0 \$0-io-delay-time \$0-ctrl-io-delay-time
Delay -2 -8 0 20 #fcfcfc #000000 #000000 320 1;
#X obj 3208 1420 loadbang;
#X text 2440 1960 We want the Phonogène to be polyphonic;
#X obj 2760 2140 +~;
#X obj 2620 2260 delwrite~ \$0-io-del 2000;
#X obj 2880 2120 r \$0-io-delay-dry_wet;
#X obj 2880 2160 expr 1 - $f1;
#X obj 2780 2220 *~;
#X obj 2940 2200 delread~ \$0-io-del;
#X obj 2980 2160 r \$0-io-delay-time;
#X obj 2860 2220 *~;
#X obj 2780 2260 +~;
#X msg 3160 1460 \; \$0-ctrl-io-delay-time 100 \; \$0-ctrl-io-delay-dry_wet
0 \;;
#X obj 2100 2120 +~;
#X obj 2407 2164 *~;
#X obj 2400 2120 receive~ \$0-phonogene-fm;
#X obj 684 1126 util/fm~;
#X obj 720 1100 r \$0-phonogene-fm-in;
#X obj 680 1260 send~ \$0-phonogene-fm;
#X msg 420 1080 ../samples/ducky_duck.wav;
#X msg 440 1100 ../samples/string.wav;
#X obj 3040 1620 r \$0-phonogene-fm-reset;
#X obj 3200 1620 loadbang;
#X msg 680 1100 reset;
#X obj 720 1080 s \$0-phonogene-fm-reset;
#X msg 3040 1660 \; \$0-phonogene-fm-in carrier_freq 0 \; \$0-phonogene-fm-in
modulator_freq 20 \; \$0-phonogene-fm-in modulator_amp 0 \;;
#X obj 2060 2000 r \$0-kick-gain;
#X obj 2260 2000 r \$0-snare-gain;
#X msg 2780 1000 \; \$0-ctrl-snare-on 1 \; \$0-ctrl-snare-section_select
0 \; \$0-ctrl-snare-gain 1 \; \$0-snare-rate-sampler_in prob 0.7 \;
;
#X msg 2200 1000 \; \$0-ctrl-kick-on 1 \; \$0-ctrl-kick-section_select
1 \; \$0-ctrl-kick-gain 2.5 \; \$0-kick-rate-sampler_in prob 0.5 \;
;
#X obj 2880 1500 receive~ \$0-dsp-out_1;
#X obj 1820 2120 throw~ \$0-ctrl-dsp-out_1;
#X obj 1840 2140 throw~ \$0-ctrl-dsp-out_2;
#X obj 2060 2160 throw~ \$0-ctrl-dsp-out_1;
#X obj 2068 2187 throw~ \$0-ctrl-dsp-out_2;
#X obj 2300 2240 throw~ \$0-ctrl-dsp-out_1;
#X obj 2320 2260 throw~ \$0-ctrl-dsp-out_2;
#X obj 2774 2292 throw~ \$0-ctrl-dsp-out_1;
#X obj 2794 2312 throw~ \$0-ctrl-dsp-out_2;
#X obj 220 2020 catch~ \$0-ctrl-dsp-out_1;
#X obj 240 2040 catch~ \$0-ctrl-dsp-out_2;
#X obj 260 2100 send~ \$0-dsp-out_1;
#X obj 300 2120 send~ \$0-dsp-out_2;
#X obj 260 2200 receive~ \$0-dsp-out_1;
#X obj 280 2220 receive~ \$0-dsp-out_2;
#X msg 3020 1520 start;
#X obj 2900 1520 receive~ \$0-dsp-out_2;
#X msg 2760 1660 \; \$0-ctrl-io-on_1 1 \; \$0-ctrl-io-on_2 1 \; \$0-ctrl-io-gain_1
5 \; \$0-ctrl-io-gain_2 5 \;;
#X obj 220 2120 dac~;
#X connect 13 0 14 0;
#X connect 14 0 25 0;
#X connect 14 1 26 0;
#X connect 14 2 27 0;
#X connect 15 0 16 0;
#X connect 17 0 15 0;
#X connect 17 1 15 1;
#X connect 19 0 332 0;
#X connect 20 0 79 1;
#X connect 21 0 66 0;
#X connect 21 0 18 0;
#X connect 22 0 14 1;
#X connect 23 0 14 2;
#X connect 24 0 14 3;
#X connect 28 0 15 0;
#X connect 29 0 17 0;
#X connect 30 0 31 0;
#X connect 32 0 30 0;
#X connect 32 1 30 1;
#X connect 33 0 32 0;
#X connect 35 0 37 0;
#X connect 35 1 37 1;
#X connect 36 0 35 0;
#X connect 37 0 34 0;
#X connect 38 0 30 0;
#X connect 39 0 37 0;
#X connect 40 0 56 0;
#X connect 42 0 44 0;
#X connect 43 0 44 1;
#X connect 44 0 45 0;
#X connect 46 0 47 0;
#X connect 48 0 55 0;
#X connect 49 0 52 0;
#X connect 50 0 49 0;
#X connect 51 0 48 0;
#X connect 53 0 52 0;
#X connect 54 0 55 0;
#X connect 56 0 41 0;
#X connect 56 0 46 0;
#X connect 57 0 76 2;
#X connect 58 0 76 0;
#X connect 60 0 74 0;
#X connect 61 0 74 2;
#X connect 63 0 78 0;
#X connect 64 0 78 2;
#X connect 66 0 14 0;
#X connect 67 0 79 5;
#X connect 67 0 257 0;
#X connect 68 0 80 1;
#X connect 69 0 79 2;
#X connect 70 0 79 4;
#X connect 71 0 79 3;
#X connect 72 0 74 1;
#X connect 73 0 72 0;
#X connect 74 0 62 0;
#X connect 75 0 76 1;
#X connect 76 0 59 0;
#X connect 77 0 78 1;
#X connect 78 0 65 0;
#X connect 79 0 81 0;
#X connect 80 0 79 0;
#X connect 85 0 101 0;
#X connect 86 0 103 0;
#X connect 87 0 86 0;
#X connect 88 0 85 0;
#X connect 89 0 84 0;
#X connect 89 0 122 0;
#X connect 91 0 93 0;
#X connect 93 0 92 0;
#X connect 94 0 95 0;
#X connect 96 0 89 2;
#X connect 97 0 89 1;
#X connect 100 0 90 0;
#X connect 100 0 89 0;
#X connect 102 0 103 0;
#X connect 104 0 105 0;
#X connect 107 0 106 0;
#X connect 109 0 113 0;
#X connect 110 0 111 0;
#X connect 111 0 108 0;
#X connect 112 0 114 0;
#X connect 113 0 114 0;
#X connect 114 0 110 0;
#X connect 115 0 116 0;
#X connect 117 0 116 0;
#X connect 118 0 106 0;
#X connect 120 0 121 0;
#X connect 121 0 119 0;
#X connect 122 0 98 0;
#X connect 123 0 210 0;
#X connect 124 0 123 0;
#X connect 124 1 123 1;
#X connect 124 2 123 2;
#X connect 134 0 174 0;
#X connect 134 1 136 0;
#X connect 134 2 176 0;
#X connect 134 3 135 0;
#X connect 135 0 149 0;
#X connect 136 0 149 0;
#X connect 151 0 216 0;
#X connect 154 0 160 0;
#X connect 155 0 154 0;
#X connect 163 0 219 0;
#X connect 164 0 163 0;
#X connect 165 0 163 0;
#X connect 166 0 167 0;
#X connect 169 0 154 0;
#X connect 170 0 124 0;
#X connect 171 0 155 0;
#X connect 174 0 149 0;
#X connect 175 0 301 0;
#X connect 176 0 149 0;
#X connect 179 0 184 0;
#X connect 180 0 183 0;
#X connect 181 0 180 0;
#X connect 182 0 179 0;
#X connect 185 0 196 0;
#X connect 186 0 195 0;
#X connect 187 0 186 0;
#X connect 188 0 185 0;
#X connect 189 0 202 0;
#X connect 189 1 203 0;
#X connect 191 0 187 0;
#X connect 192 0 188 0;
#X connect 199 0 430 0;
#X connect 199 0 437 0;
#X connect 200 0 431 0;
#X connect 200 0 437 1;
#X connect 201 0 199 1;
#X connect 201 0 200 1;
#X connect 202 0 190 0;
#X connect 203 0 209 0;
#X connect 204 0 202 1;
#X connect 204 0 203 1;
#X connect 206 0 125 0;
#X connect 208 0 207 0;
#X connect 210 0 420 0;
#X connect 210 0 421 0;
#X connect 211 0 214 0;
#X connect 211 1 212 0;
#X connect 211 2 218 0;
#X connect 211 3 215 0;
#X connect 212 0 213 0;
#X connect 214 0 213 0;
#X connect 215 0 213 0;
#X connect 216 0 134 0;
#X connect 217 0 211 0;
#X connect 218 0 213 0;
#X connect 219 0 168 0;
#X connect 221 0 224 0;
#X connect 221 0 222 0;
#X connect 222 0 223 0;
#X connect 224 0 225 0;
#X connect 224 1 222 0;
#X connect 225 0 223 0;
#X connect 226 0 227 0;
#X connect 226 0 228 0;
#X connect 226 0 279 0;
#X connect 229 0 234 2;
#X connect 230 0 234 3;
#X connect 231 0 234 1;
#X connect 232 0 234 0;
#X connect 234 0 233 0;
#X connect 235 0 238 2;
#X connect 236 0 238 3;
#X connect 237 0 238 1;
#X connect 238 0 240 0;
#X connect 239 0 238 0;
#X connect 242 0 241 0;
#X connect 243 0 244 0;
#X connect 244 0 247 0;
#X connect 245 0 255 0;
#X connect 246 0 245 0;
#X connect 248 0 249 1;
#X connect 248 0 249 0;
#X connect 249 0 313 0;
#X connect 250 0 313 0;
#X connect 252 0 418 0;
#X connect 252 0 317 0;
#X connect 253 0 402 0;
#X connect 254 0 253 0;
#X connect 257 0 80 0;
#X connect 258 0 257 1;
#X connect 260 0 241 0;
#X connect 261 0 260 1;
#X connect 262 0 343 0;
#X connect 265 0 270 0;
#X connect 266 0 272 0;
#X connect 269 0 265 0;
#X connect 271 0 266 0;
#X connect 273 0 276 2;
#X connect 274 0 276 3;
#X connect 275 0 276 1;
#X connect 276 0 278 0;
#X connect 277 0 276 0;
#X connect 280 0 402 1;
#X connect 281 0 280 0;
#X connect 283 0 289 0;
#X connect 284 0 285 0;
#X connect 285 0 314 0;
#X connect 286 0 316 0;
#X connect 286 0 417 0;
#X connect 287 0 289 0;
#X connect 288 0 284 1;
#X connect 288 0 284 0;
#X connect 290 0 287 1;
#X connect 291 0 153 0;
#X connect 294 0 296 0;
#X connect 294 1 296 1;
#X connect 295 0 300 0;
#X connect 296 0 298 0;
#X connect 299 0 297 1;
#X connect 300 0 297 0;
#X connect 300 1 299 0;
#X connect 302 0 304 0;
#X connect 303 0 367 0;
#X connect 304 0 303 0;
#X connect 304 1 303 1;
#X connect 304 2 303 2;
#X connect 305 0 367 0;
#X connect 307 0 310 0;
#X connect 307 0 344 0;
#X connect 308 0 309 0;
#X connect 311 0 366 0;
#X connect 311 0 387 0;
#X connect 318 0 319 0;
#X connect 320 0 321 0;
#X connect 322 0 323 1;
#X connect 323 0 403 0;
#X connect 324 0 287 0;
#X connect 325 0 324 0;
#X connect 326 0 327 0;
#X connect 327 0 260 0;
#X connect 328 0 105 0;
#X connect 329 0 328 0;
#X connect 333 0 335 0;
#X connect 334 0 333 0;
#X connect 336 0 341 1;
#X connect 337 0 336 0;
#X connect 337 0 365 0;
#X connect 338 0 340 0;
#X connect 338 1 341 0;
#X connect 340 0 339 0;
#X connect 341 0 365 0;
#X connect 355 0 436 0;
#X connect 356 0 358 0;
#X connect 357 0 359 0;
#X connect 358 0 392 0;
#X connect 359 0 392 1;
#X connect 360 0 358 1;
#X connect 361 0 359 1;
#X connect 362 0 358 1;
#X connect 363 0 359 1;
#X connect 364 0 338 0;
#X connect 366 0 309 0;
#X connect 367 0 323 0;
#X connect 368 0 418 0;
#X connect 368 0 317 0;
#X connect 369 0 316 0;
#X connect 369 0 417 0;
#X connect 370 0 372 0;
#X connect 371 0 373 0;
#X connect 376 0 377 0;
#X connect 377 0 380 0;
#X connect 377 1 378 0;
#X connect 378 0 379 0;
#X connect 378 1 381 0;
#X connect 379 0 375 0;
#X connect 380 0 375 0;
#X connect 381 0 375 0;
#X connect 382 0 348 0;
#X connect 383 0 382 0;
#X connect 384 0 306 0;
#X connect 384 0 308 0;
#X connect 385 0 348 0;
#X connect 386 0 385 0;
#X connect 387 0 384 0;
#X connect 390 0 401 0;
#X connect 392 0 396 0;
#X connect 392 0 393 0;
#X connect 394 0 395 0;
#X connect 394 0 399 1;
#X connect 395 0 396 1;
#X connect 396 0 400 0;
#X connect 397 0 399 0;
#X connect 398 0 397 0;
#X connect 399 0 400 1;
#X connect 400 0 426 0;
#X connect 400 0 427 0;
#X connect 402 0 422 0;
#X connect 402 0 423 0;
#X connect 403 0 424 0;
#X connect 403 0 425 0;
#X connect 404 0 403 1;
#X connect 405 0 407 0;
#X connect 406 0 405 0;
#X connect 408 0 348 0;
#X connect 409 0 348 0;
#X connect 410 0 414 0;
#X connect 411 0 414 0;
#X connect 412 0 413 0;
#X connect 415 0 253 1;
#X connect 416 0 280 1;
#X connect 419 0 375 0;
#X connect 428 0 199 0;
#X connect 429 0 200 0;
#X connect 432 0 181 0;
#X connect 433 0 182 0;
#X connect 435 0 375 1;
