#N canvas 0 60 960 995 12;
#X obj 292 472 list;
#X obj 152 392 spigot;
#X obj 312 392 spigot;
#X obj 472 392 spigot;
#X msg 292 272 1 0 0;
#X msg 352 272 0 1 0;
#X msg 412 272 0 0 1;
#X obj 292 292 unpack f f f;
#X obj 292 232 select measure beat subbeat;
#X obj 60 40 inlet;
#X obj 180 40 inlet;
#X obj 300 40 inlet;
#X obj 440 40 inlet;
#X text 60 20 Section name;
#X text 180 20 Measure params;
#X text 300 20 Beat params;
#X text 440 20 Sub-beat params;
#X obj 280 520 outlet;
#X text 280 540 Section params;
#X connect 0 0 17 0;
#X connect 1 0 0 0;
#X connect 2 0 0 0;
#X connect 3 0 0 0;
#X connect 4 0 7 0;
#X connect 5 0 7 0;
#X connect 6 0 7 0;
#X connect 7 0 1 1;
#X connect 7 1 2 1;
#X connect 7 2 3 1;
#X connect 8 0 4 0;
#X connect 8 1 5 0;
#X connect 8 2 6 0;
#X connect 9 0 8 0;
#X connect 10 0 1 0;
#X connect 11 0 2 0;
#X connect 12 0 3 0;
