#N canvas 480 60 960 995 12;
#X obj 460 260 cnv 15 69 120 empty empty empty 20 12 0 14 #e0e0e0 #404040
0;
#X obj 40 40 inlet;
#X obj 260 160 s \$0-ctrl-prob;
#X msg 80 120 seed \$1;
#X obj 200 300 r \$0-prob;
#X msg 260 140 0.5, f 4;
#X obj 40 460 outlet;
#X text 40 20 Sample (bang);
#X obj 480 280 vsl 32 86 0 1 0 0 \$0-prob \$0-ctrl-prob Prob 0 -9 0
14 #000000 #5fff00 #000000 4250 1;
#X obj 40 60 route bang seed prob resolution reset, f 39;
#X obj 40 300 random 100;
#X obj 180 260 r \$0-resolution;
#X obj 120 160 s \$0-resolution;
#X obj 40 360 / 100;
#X obj 40 400 <=;
#X msg 140 200 bang;
#X connect 1 0 9 0;
#X connect 3 0 10 0;
#X connect 4 0 14 1;
#X connect 5 0 2 0;
#X connect 9 0 10 0;
#X connect 9 1 3 0;
#X connect 9 2 2 0;
#X connect 9 3 12 0;
#X connect 9 4 5 0;
#X connect 9 5 15 0;
#X connect 10 0 13 0;
#X connect 11 0 10 1;
#X connect 11 0 13 1;
#X connect 13 0 14 0;
#X connect 14 0 6 0;
#X connect 15 0 10 0;
#X coords 0 -1 1 1 151 136 1 431 245;
