#N canvas 75 60 960 995 12;
#X obj 220 80 cnv 15 361 139 empty empty empty 20 12 0 14 #116900 #7eff00
0;
#X obj 40 60 inlet;
#X obj 160 480 f;
#X obj 19 572 noise~;
#X obj 60 660 *~;
#X obj 280 800 vcf~ 0.5;
#X obj 240 840 *~;
#X obj 220 940 outlet~;
#X obj 240 660 *~ 1;
#X obj 160 540 impact_env~;
#X obj 260 540 impact_pitch~;
#X obj 240 700 phasor~;
#X obj 240 740 expr~ $v1 > 0.5;
#X msg 160 440 bang;
#X text 40 40 Noise level / Bang;
#X obj 40 100 route bang;
#X obj 80 280 s \$0-ctrl-decay;
#X obj 120 320 s \$0-ctrl-pitch;
#X obj 79 612 r \$0-noise;
#X obj 240 440 r \$0-decay;
#X obj 280 620 r \$0-pitch;
#X obj 40 360 s \$0-start;
#X obj 160 420 r \$0-start;
#X obj 340 900 tabwrite~ \$0-arr;
#N canvas 0 0 450 300 (subpatch) 0;
#X array \$0-arr 100 float 1 black #31ff00;
#A 0 0 0 0 0 0 0 0 0 0 0 0 0 0 0 0 0 0 0 0 0 0 0 0 0 0 0 0 0 0 0 0
0 0 0 0 0 0 0 0 0 0 0 0 0 0 0 0 0 0 0 0 0 0 0 0 0 0 0 0 0 0 0 0 0 0
0 0 0 0 0 0 0 0 0 0 0 0 0 0 0 0 0 0 0 0 0 0 0 0 0 0 0 0 0 0 0 0 0 0
0;
#X coords 0 1 99 -1 200 140 1;
#X restore 500 780 graph;
#X obj 240 120 vsl 35 81 5 2000 0 0 \$0-decay \$0-ctrl-decay Decay
0 -9 0 10 #fcfcfc #000000 #000000 1800 1;
#X obj 320 120 vsl 35 81 0.5 20 1 0 \$0-pitch \$0-ctrl-pitch Pitch
0 -9 0 10 #fcfcfc #000000 #000000 1550 1;
#X obj 360 120 vsl 35 81 1 2000 0 0 \$0-vcf-freq \$0-ctrl-vcf-freq
VCFFreq 0 -9 0 10 #fcfcfc #000000 #000000 8000 1;
#X floatatom 119 752 5 0 0 0 - - -, f 5;
#X obj 280 120 vsl 35 81 0 1 0 0 \$0-noise \$0-ctrl-noise Noise 0 -9
0 10 #fcfcfc #000000 #000000 150 1;
#X obj 100 300 s \$0-ctrl-noise;
#X obj 360 440 bng 135 250 50 0 empty empty empty 17 7 0 10 #fcfcfc
#000000 #000000;
#X text 200 60 Decay (ms);
#X text 280 60 Pitch scale;
#X floatatom 240 200 5 0 0 0 - - -, f 5;
#X floatatom 280 200 5 0 0 0 - - -, f 5;
#X floatatom 320 200 5 0 0 0 - - -, f 5;
#X floatatom 360 200 5 0 0 0 - - -, f 5;
#X text 380 60 VCF Filter freq;
#X obj 400 120 vsl 35 81 0 2 0 0 \$0-vcf-q \$0-ctrl-vcf-q VCFQ 0 -9
0 10 #fcfcfc #000000 #000000 1100 1;
#X floatatom 400 200 5 0 0 0 - - -, f 5;
#X obj 180 360 s \$0-ctrl-vcf-q;
#X obj 280 760 r \$0-vcf-freq;
#X obj 400 644 r \$0-vcf-q;
#X obj 508 723 metro 100;
#X obj 540 580 loadbang;
#X obj 80 240 route decay noise pitch vcf_freq vcf_q;
#X obj 160 340 s \$0-ctrl-vcf-freq;
#X connect 1 0 15 0;
#X connect 2 0 9 0;
#X connect 2 0 10 0;
#X connect 2 0 31 0;
#X connect 3 0 4 0;
#X connect 4 0 5 0;
#X connect 5 0 6 1;
#X connect 6 0 7 0;
#X connect 6 0 23 0;
#X connect 8 0 11 0;
#X connect 9 0 6 0;
#X connect 10 0 8 0;
#X connect 11 0 12 0;
#X connect 12 0 5 0;
#X connect 13 0 2 0;
#X connect 15 0 21 0;
#X connect 15 1 46 0;
#X connect 18 0 4 1;
#X connect 18 0 28 0;
#X connect 19 0 2 1;
#X connect 20 0 8 1;
#X connect 22 0 13 0;
#X connect 25 0 34 0;
#X connect 26 0 36 0;
#X connect 27 0 37 0;
#X connect 29 0 35 0;
#X connect 39 0 40 0;
#X connect 42 0 5 1;
#X connect 43 0 5 2;
#X connect 44 0 23 0;
#X connect 45 0 44 0;
#X connect 46 0 16 0;
#X connect 46 1 30 0;
#X connect 46 2 17 0;
#X connect 46 3 47 0;
#X connect 46 4 41 0;
#X coords 0 -1 1 1 200 131 1 238 91;
