#N canvas 735 427 450 300 12;
#X obj 60 60 inlet;
#X text 60 40 Fill value;
#X obj 60 140 array size \$1;
#X obj 60 180 until;
#X obj 40 340 array set \$1;
#X obj 100 220 + 1;
#X obj 60 220 f;
#X msg 180 120 0;
#X obj 60 100 t b f b;
#X obj 40 300 f;
#X obj 80 260 t b f;
#X obj 60 80 f \$2;
#X connect 0 0 11 0;
#X connect 2 0 3 0;
#X connect 3 0 6 0;
#X connect 5 0 6 1;
#X connect 6 0 5 0;
#X connect 6 0 10 0;
#X connect 7 0 6 1;
#X connect 8 0 2 0;
#X connect 8 1 9 1;
#X connect 8 2 7 0;
#X connect 9 0 4 0;
#X connect 10 0 9 0;
#X connect 10 1 4 1;
#X connect 11 0 8 0;
