#N canvas 91 60 960 995 12;
#X obj 500 -540 inlet;
#X obj 620 -540 inlet;
#X text 500 -560 MIDI Velocity;
#X text 620 -560 Duration (in sections/minute);
#X obj 320 -540 inlet;
#X obj 380 -540 inlet;
#X text 320 -560 Tonality;
#X text 380 -560 Octave index;
#X obj 60 -360 outlet;
#X obj 60 -540 inlet;
#X text 60 -560 Chord (a single list of chromas);
#X obj 60 -480 list_foreach;
#X obj 60 -440 chroma_to_midi;
#X obj 840 -540 inlet;
#X text 840 -560 Section params;
#X text 240 -420 Generic chord harmoniser.;
#X connect 0 0 12 3;
#X connect 1 0 12 4;
#X connect 4 0 12 1;
#X connect 5 0 12 2;
#X connect 9 0 11 0;
#X connect 11 0 12 0;
#X connect 12 0 8 0;
#X connect 13 0 12 5;
