#N canvas 337 158 974 609 12;
#X obj 80 20 inlet;
#X text 80 0 Mean;
#X obj 220 40 inlet;
#N canvas 0 0 450 300 (subpatch) 0;
#X array \$0-arr_gaussian 1 float 7 #000000 #00ff15;
#A 0 0.103288;
#X coords 0 1 1 0 200 140 1;
#X restore 400 420 graph;
#X obj 600 40 inlet;
#X text 600 20 Nb points;
#X obj 600 60 f \$1;
#X obj 40 300 array random \$0-arr_gaussian;
#X obj 420 380 array_set_gaussian \$0-arr_gaussian;
#X obj 40 480 outlet;
#X obj 80 80 route bang seed;
#X obj 420 340 wait;
#X obj 80 160 s \$0-evaluating;
#X obj 240 160 r \$0-evaluating;
#X text 700 320 Don't compute the array unless the gaussian is actually
being evaluated. It won't compute it again if the parameters didn't
change either., f 42;
#X text 220 20 Variance;
#X obj 160 120 t b f;
#X obj 580 320 wait;
#X obj 240 200 t b b b, f 9;
#X obj 660 140 expr $f1 / 2;
#X obj 660 160 s \$0-regularisation-mean;
#X obj 220 80 t b f f;
#X obj 640 240 expr - $f1 * $f1 / (8 * ln($f2));
#X obj 720 200 array get \$0-arr_gaussian 0 1;
#X obj 480 100 t f f b f;
#X obj 640 260 s \$0-regularisation-var;
#X obj 160 360 r \$0-regularisation-mean;
#X obj 380 140 r \$0-regularisation-var;
#X obj 60 440 expr $f2 + ($f1 - $f4) * ($f3 / $f5);
#X text 660 420 SEE README about rationale for reguralisating the gaussian
after discritisation so that its mean and variance are indeed what
we input. Not sure it works \, whatever., f 25;
#X obj 420 220 bng 73 250 50 0 empty empty empty 17 7 0 10 #fcfcfc
#000000 #000000;
#X connect 0 0 10 0;
#X connect 2 0 21 0;
#X connect 4 0 6 0;
#X connect 6 0 24 0;
#X connect 7 0 28 0;
#X connect 10 0 12 0;
#X connect 10 1 7 0;
#X connect 10 2 16 0;
#X connect 11 0 8 0;
#X connect 13 0 18 0;
#X connect 16 0 12 0;
#X connect 16 1 28 1;
#X connect 17 0 8 1;
#X connect 18 0 7 0;
#X connect 18 1 11 1;
#X connect 18 2 17 1;
#X connect 19 0 20 0;
#X connect 21 0 12 0;
#X connect 21 2 28 2;
#X connect 22 0 25 0;
#X connect 23 0 22 1;
#X connect 24 0 11 0;
#X connect 24 1 22 0;
#X connect 24 2 23 0;
#X connect 24 3 19 0;
#X connect 26 0 28 3;
#X connect 27 0 17 0;
#X connect 27 0 28 4;
#X connect 27 0 30 0;
#X connect 28 0 9 0;
