#N canvas 745 180 726 545 12;
#X obj 40 220 until;
#X obj 40 160 list length;
#X obj 140 240 i;
#X obj 180 240 + 1;
#X obj 140 120 t l l;
#X obj 140 260 mod;
#X obj 140 400 list_get;
#X obj 140 360 list;
#X obj 140 80 inlet;
#X text 140 60 Input list to iterate upon.;
#X obj 140 440 outlet;
#X text 140 460 One element of the list at a time;
#X obj 140 300 t b f;
#X obj 40 180 t f f;
#X text 260 120 Iterate through a list of symbols Doesn't work with
nested lists (I can't even make them work any way), f 26;
#X text 260 280 It ain't broken \, but to be safe \, don't touch it.
, f 16;
#X connect 0 0 2 0;
#X connect 1 0 13 0;
#X connect 2 0 3 0;
#X connect 2 0 5 0;
#X connect 3 0 2 1;
#X connect 4 0 1 0;
#X connect 4 1 7 1;
#X connect 5 0 12 0;
#X connect 6 0 10 0;
#X connect 7 0 6 0;
#X connect 8 0 4 0;
#X connect 12 0 7 0;
#X connect 12 1 6 1;
#X connect 13 0 0 0;
#X connect 13 1 5 1;
