#N canvas 309 181 960 995 12;
#X obj 292 -508 metro;
#X msg 360 -580 tempo \$1 permin;
#X obj 360 -600 *;
#X obj 440 -440 + 1;
#X obj 372 -388 mod;
#X obj 400 -300 spigot;
#X obj 420 -320 == 0;
#X obj 440 -260 + 1;
#X obj 360 -360 t f b f;
#X obj 300 -200 mod;
#X obj 300 -100 spigot;
#X obj 320 -120 == 0;
#X obj 300 -180 t f b f;
#X obj 320 -60 + 1;
#X obj 280 0 bng 91 250 50 0 measure empty Measure 17 7 0 14 #fcfcfc
#000000 #000000;
#X floatatom 280 -20 5 0 0 0 - - -, f 5;
#X obj 340 -20 t b f;
#X obj 240 -640 inlet;
#X obj 360 -640 inlet;
#X obj 640 -640 inlet;
#X obj 520 -640 inlet;
#X text 240 -660 On/Off switch;
#X text 520 -660 Beats/Measure;
#X text 360 -660 Beats/Minute;
#X text 640 -660 Subbeat/Beat;
#X obj 300 120 outlet;
#X obj 460 120 outlet;
#X obj 680 120 outlet, f 7;
#X text 300 140 Total measure count;
#X text 460 140 Beat index in current measure;
#X text 680 140 Subbeat index in current beat;
#X obj 380 -440 i;
#X obj 400 -260 i;
#X obj 280 -60 i;
#X text 540 -480 Metronome that returns BPM \, measures and subbeats
;
#X obj 180 -560 route reset;
#X msg 80 -320 0;
#X obj 80 -300 t f f f;
#X connect 0 0 31 0;
#X connect 1 0 0 0;
#X connect 2 0 1 0;
#X connect 3 0 31 1;
#X connect 4 0 8 0;
#X connect 5 0 32 0;
#X connect 6 0 5 1;
#X connect 7 0 32 1;
#X connect 8 0 27 0;
#X connect 8 1 5 0;
#X connect 8 2 6 0;
#X connect 9 0 12 0;
#X connect 10 0 33 0;
#X connect 11 0 10 1;
#X connect 12 0 26 0;
#X connect 12 1 10 0;
#X connect 12 2 11 0;
#X connect 13 0 33 1;
#X connect 16 0 14 0;
#X connect 16 1 15 0;
#X connect 16 1 25 0;
#X connect 17 0 35 0;
#X connect 18 0 2 0;
#X connect 19 0 4 1;
#X connect 19 0 2 1;
#X connect 20 0 9 1;
#X connect 31 0 3 0;
#X connect 31 0 4 0;
#X connect 32 0 7 0;
#X connect 32 0 9 0;
#X connect 33 0 13 0;
#X connect 33 0 16 0;
#X connect 35 0 36 0;
#X connect 35 1 0 0;
#X connect 36 0 37 0;
#X connect 37 0 33 0;
#X connect 37 1 32 0;
#X connect 37 2 31 0;
