#N canvas 497 388 655 585 12;
#X obj 60 80 unpack f f;
#X obj 60 280 *~;
#X obj 140 140 / 127;
#X obj 60 40 inlet;
#X text 60 20 MIDI note (tone \, velocity);
#X obj 60 320 outlet~;
#X obj 60 160 mtof;
#X floatatom 180 300 5 0 0 0 - - -, f 5;
#X floatatom 220 200 5 0 0 0 - - -, f 5;
#X obj 60 240 normalise~ 0.5 1;
#X obj 60 200 triangle~;
#X connect 0 0 6 0;
#X connect 0 1 2 0;
#X connect 1 0 5 0;
#X connect 2 0 1 1;
#X connect 2 0 8 0;
#X connect 3 0 0 0;
#X connect 6 0 7 0;
#X connect 6 0 10 0;
#X connect 9 0 1 0;
#X connect 10 0 9 0;
