#N canvas 492 60 960 995 12;
#X obj 60 40 inlet;
#X obj 40 420 ../third_party/soundtouch/soundtouch~;
#X text 60 20 MIDI note (tone \, velocity);
#X obj 340 160 r \$0-ref_tone;
#X obj 300 140 s \$0-ref_tone;
#X obj 200 140 unpack f f;
#X obj 260 200 mtof;
#X obj 320 200 mtof;
#X obj 280 240 /;
#X obj 60 60 route ref_tone set, f 20;
#X msg 80 260 set \$1;
#X obj 40 500 *~;
#X obj 40 540 outlet~;
#X obj 180 100 t b l;
#X obj 300 20 loadbang;
#X obj 80 240 l \$1;
#X obj 20 340 tabplay~;
#N canvas 0 0 450 300 (subpatch) 0;
#X array \$0-arr 100 float 5 black #38ff00;
#A 0 0 0 0 0 0 0 0 0 0 0 0 0 0 0 0 0 0 0 0 0 0 0 0 0 0 0 0 0 0 0 0
0 0 0 0 0 0 0 0 0 0 0 0 0 0 0 0 0 0 0 0 0 0 0 0 0 0 0 0 0 0 0 0 0 0
0 0 0 0 0 0 0 0 0 0 0 0 0 0 0 0 0 0 0 0 0 0 0 0 0 0 0 0 0 0 0 0 0 0
0;
#X coords 0 1 99 -1 200 140 1;
#X restore 480 220 graph;
#X obj 160 320 / 127;
#X floatatom 380 260 5 0 0 0 - - -, f 5;
#X obj 300 100 f 69;
#X connect 0 0 9 0;
#X connect 1 0 11 0;
#X connect 3 0 7 0;
#X connect 3 0 19 0;
#X connect 5 0 6 0;
#X connect 5 1 18 0;
#X connect 6 0 8 0;
#X connect 7 0 8 1;
#X connect 8 0 1 1;
#X connect 9 0 20 0;
#X connect 9 1 15 0;
#X connect 9 2 13 0;
#X connect 10 0 16 0;
#X connect 11 0 12 0;
#X connect 13 0 16 0;
#X connect 13 1 5 0;
#X connect 14 0 20 0;
#X connect 15 0 10 0;
#X connect 16 0 1 0;
#X connect 18 0 11 1;
#X connect 20 0 4 0;
