#N canvas 326 179 860 563 12;
#X obj 52 -408 inlet;
#X text 512 -428 Nb points;
#X obj 492 -368 f \$1;
#X obj 20 -40 outlet;
#X obj 272 -268 r \$0-evaluating;
#X text 772 -48 Don't compute the array unless the gaussian is actually
being evaluated. It won't compute it again if the parameters didn't
change either., f 42;
#X msg 32 -168 seed \$1;
#X obj 440 -120 cnv 15 276 199 empty empty empty 20 12 0 14 #000000
#48ff2d 0;
#N canvas 736 429 449 298 (subpatch) 0;
#X array \$0-arr_random 5 float 23 black #31ff00;
#A 0 0.05 0.3 0.802851 0.85285 0.05;
#X coords 0 1 5 0 200 140 1;
#X restore 500 -80 graph;
#X obj 12 -268 s \$0-evaluating;
#X text 52 -428 Sample (bang);
#X obj 272 -248 t b b;
#X obj 312 -208 s \$0-reset_if_changed;
#X obj 140 -280 s \$0-range;
#X obj 492 -408 r \$0-range;
#X obj 20 -120 array random \$0-arr_random;
#X obj 480 -340 t f f, f 6;
#X obj 500 -220 f;
#X obj 560 -280 r \$0-reset_if_changed;
#X obj 560 -220 wait;
#X obj 500 -160 array size \$0-arr_random;
#X obj 380 -420 loadbang;
#X floatatom 600 -320 5 0 0 0 - - -, f 5;
#X floatatom 540 -180 5 0 0 0 - - -, f 5;
#X obj 420 -380 t b b;
#X obj 240 -300 s \$0-set_uniform;
#X obj 720 -380 r \$0-set_uniform;
#X obj 720 -280 array_fill \$0-arr_random;
#X obj 720 -340 array size \$0-arr_random;
#X obj 880 -260 bng 15 250 50 0 empty empty empty 17 7 0 10 #fcfcfc
#000000 #000000;
#X msg 720 -360 bang;
#X obj 720 -320 expr 1/$f1;
#X obj 80 -340 route seed range reset unifom;
#X obj 40 -380 route bang;
#X obj 220 -280 s \$0-set;
#X obj 300 -120 r \$0-set;
#X obj 300 -80 list;
#X obj 300 -40 array set \$0-arr_random;
#X obj 220 -180 bng 15 250 50 0 empty empty empty 17 7 0 10 #fcfcfc
#000000 #000000;
#X connect 0 0 33 0;
#X connect 2 0 16 0;
#X connect 2 0 22 0;
#X connect 4 0 11 0;
#X connect 6 0 15 0;
#X connect 11 0 15 0;
#X connect 11 1 12 0;
#X connect 14 0 2 0;
#X connect 15 0 3 0;
#X connect 16 0 17 1;
#X connect 16 1 19 0;
#X connect 17 0 20 0;
#X connect 17 0 23 0;
#X connect 18 0 19 1;
#X connect 19 0 20 1;
#X connect 21 0 24 0;
#X connect 24 0 17 0;
#X connect 24 1 2 0;
#X connect 26 0 29 0;
#X connect 26 0 30 0;
#X connect 28 0 31 0;
#X connect 30 0 28 0;
#X connect 31 0 27 0;
#X connect 32 0 6 0;
#X connect 32 1 13 0;
#X connect 32 2 34 0;
#X connect 32 2 38 0;
#X connect 32 3 25 0;
#X connect 32 4 9 0;
#X connect 33 0 9 0;
#X connect 33 1 32 0;
#X connect 35 0 36 0;
#X connect 36 0 37 0;
#X coords 0 -1 1 1 219 153 1 482 -92;
