#N canvas 112 60 960 995 12;
#X obj 80 20 inlet;
#X text 540 0 Nb points;
#X obj 520 60 f \$1;
#X obj 40 300 array random \$0-arr_gaussian;
#X obj 540 380 array_set_gaussian \$0-arr_gaussian;
#X obj 40 480 outlet;
#X obj 560 320 wait;
#X obj 300 160 r \$0-evaluating;
#X text 800 380 Don't compute the array unless the gaussian is actually
being evaluated. It won't compute it again if the parameters didn't
change either., f 42;
#X obj 760 320 wait;
#X obj 700 40 expr $f1 / 2;
#X obj 700 60 s \$0-regularisation-mean;
#X obj 700 200 s \$0-regularisation-var;
#X obj 160 360 r \$0-regularisation-mean;
#X obj 720 220 r \$0-regularisation-var;
#X text 660 420 SEE README about rationale for reguralisating the gaussian
after discritisation so that its mean and variance are indeed what
we input. Not sure it works \, whatever., f 25;
#X msg 60 260 seed \$1;
#X obj 440 560 cnv 15 276 199 empty empty empty 20 12 0 14 #000000
#48ff2d 0;
#N canvas 736 429 449 298 (subpatch) 0;
#X array \$0-arr_gaussian 32 float 23 black #31ff00;
#A 0 0.464864 0.507718 0.551377 0.595394 0.639277 0.6825 0.724512 0.764748
0.802638 0.837627 0.869182 0.896809 0.920065 0.938569 0.952013 0.960172
0.962907 0.960172 0.952013 0.938569 0.920065 0.896809 0.869182 0.837627
0.802638 0.764748 0.724512 0.6825 0.639277 0.595394 0.551377 0.507718
;
#X coords 0 1 32 0 200 140 1;
#X restore 500 600 graph;
#X obj 40 160 s \$0-evaluating;
#X obj 160 120 s \$0-resolution;
#X obj 520 20 r \$0-resolution;
#X text 80 0 Sample (bang);
#X obj 280 300 r \$0-regularisation-var;
#X obj 80 60 route bang seed resolution reset;
#X obj 300 180 t b b;
#X obj 580 280 r \$0-reset_if_changed;
#X obj 340 220 s \$0-reset_if_changed;
#X obj 700 140 expr 1 / ($f1 * $f1);
#X obj 40 420 expr ($f1 - $f2) / sqrt($f3 + 0.01);
#X obj 700 160 expr - $f1 * $f1 / (4 * (0.01 + ln(abs($f2))));
#X msg 700 180 0.6, f 6;
#X msg 320 400 1;
#X text 920 60 Our epsilon_n. We chose O(1/n^2). Actually none of this
work so whatever., f 16;
#X obj 520 80 t f f f f;
#X obj 520 320 f;
#X obj 320 100 s \$0-reset;
#X obj 600 220 r \$0-reset;
#X obj 820 280 t f f;
#X obj 820 320 f;
#X connect 0 0 24 0;
#X connect 2 0 34 0;
#X connect 3 0 29 0;
#X connect 6 0 4 0;
#X connect 7 0 25 0;
#X connect 9 0 4 1;
#X connect 10 0 11 0;
#X connect 13 0 29 1;
#X connect 14 0 38 0;
#X connect 16 0 3 0;
#X connect 21 0 2 0;
#X connect 23 0 29 2;
#X connect 24 0 19 0;
#X connect 24 1 16 0;
#X connect 24 2 20 0;
#X connect 24 3 36 0;
#X connect 24 4 19 0;
#X connect 25 0 3 0;
#X connect 25 1 27 0;
#X connect 26 0 6 1;
#X connect 26 0 9 1;
#X connect 28 0 30 1;
#X connect 29 0 5 0;
#X connect 31 0 12 0;
#X connect 32 0 29 2;
#X connect 34 0 6 0;
#X connect 34 1 35 1;
#X connect 34 2 31 0;
#X connect 34 3 10 0;
#X connect 35 0 4 0;
#X connect 37 0 35 0;
#X connect 37 0 39 0;
#X connect 38 0 9 0;
#X connect 38 1 39 1;
#X connect 39 0 4 1;
#X coords 0 -1 1 1 216 154 1 486 587;
