#N canvas 364 60 961 995 12;
#X obj 60 40 inlet;
#X text 60 20 frequency (Hz);
#X obj 200 40 inlet;
#X obj 60 340 outlet~;
#X obj 60 240 phasor~;
#X obj 160 220 * 2;
#X obj 160 240 phasor~;
#X text 60 360 Square signal;
#X obj 60 320 expr~ 2*$v1 -$v2;
#X text 320 160 Square oscillator. Values in [0 \, 1] \, same as phasor~
;
#X text 200 20 Phase (in [0 \, 1] \, same as phasor~);
#X obj 200 220 * 2;
#X obj 60 80 f \$1;
#X obj 100 60 loadbang;
#X connect 0 0 12 0;
#X connect 2 0 11 0;
#X connect 2 0 4 1;
#X connect 4 0 8 0;
#X connect 5 0 6 0;
#X connect 6 0 8 1;
#X connect 8 0 3 0;
#X connect 11 0 6 1;
#X connect 12 0 4 0;
#X connect 12 0 5 0;
#X connect 13 0 12 0;
