#N canvas 999 148 669 466 12;
#X obj 40 200 list;
#X obj 40 20 inlet;
#X text 40 0 Beat;
#X obj 40 340 outlet;
#X obj 200 240 outlet;
#X obj 380 240 outlet;
#X text 200 260 Tonality (chroma rel to A), f 13;
#X text 380 260 Ocatave number, f 13;
#X obj 40 60 route 0 1 2 4 tonality octave;
#X text 360 200 Generic 4-chord sequence.;
#X text 300 0 MIDI Velocity;
#X text 420 0 Duration (in beats);
#X obj 40 280 util/list_foreach;
#X obj 40 320 util/chroma_to_midi;
#X text 40 360 Seq of MIDI Chords, f 16;
#X obj 300 20 inlet;
#X obj 420 20 inlet;
#X obj 600 20 inlet;
#X text 600 0 BeatsPerMinute;
#X connect 0 0 12 0;
#X connect 1 0 8 0;
#X connect 8 0 0 0;
#X connect 8 1 0 0;
#X connect 8 2 0 0;
#X connect 8 3 0 0;
#X connect 8 4 4 0;
#X connect 8 4 13 1;
#X connect 8 5 5 0;
#X connect 8 5 13 2;
#X connect 12 0 13 0;
#X connect 13 0 3 0;
#X connect 15 0 13 3;
#X connect 16 0 13 4;
#X connect 17 0 13 5;
