#N canvas 561 345 669 447 12;
#X msg 40 140 0 4 7;
#X obj 40 60 route 0 1 2 4;
#X obj 40 200 list;
#X msg 100 140 5 9 0 2;
#X obj 40 20 inlet;
#X text 40 0 Beat;
#X text 420 60 Simple 4-chord sequence.;
#X obj 40 240 outlet;
#X msg 197 151 0 \, 1;
#X msg 380 160 3;
#X obj 200 240 outlet;
#X obj 380 240 outlet;
#X text 100 100 <-- The Chords are a list of chromas!;
#X text 40 260 Seq of chords (chromas rel to A), f 16;
#X text 200 260 Tonality (chroma rel to A), f 13;
#X text 380 260 Ocatave number, f 13;
#X obj 40 40 t l b b;
#X connect 0 0 2 0;
#X connect 1 0 0 0;
#X connect 1 1 0 0;
#X connect 1 2 3 0;
#X connect 1 3 3 0;
#X connect 2 0 7 0;
#X connect 3 0 2 0;
#X connect 4 0 16 0;
#X connect 8 0 10 0;
#X connect 9 0 11 0;
#X connect 16 0 1 0;
#X connect 16 1 8 0;
#X connect 16 2 9 0;
