#N canvas 0 60 960 995 12;
#X obj 60 460 four_chords;
#X msg 132 232 tonality \$1;
#X obj 232 212 r fs_octave;
#X msg 232 232 octave \$1;
#X obj 40 340 r fs_one;
#X obj 120 380 r fs_two;
#X obj 220 400 r fs_three;
#X obj 320 440 r fs_four;
#X floatatom 720 280 5 0 0 0 - - -, f 5;
#X floatatom 780 280 5 0 0 0 - - -, f 5;
#X floatatom 720 380 5 0 0 0 - - -, f 5;
#X obj 132 212 r tonality;
#X obj 312 252 r bpm;
#X obj 760 200 r fs_dur_dist;
#X obj 840 280 r gaussian_res;
#X obj 760 220 unpack;
#X obj 60 40 r beat;
#X floatatom 440 280 5 0 0 0 - - -, f 5;
#X floatatom 480 280 5 0 0 0 - - -, f 5;
#X floatatom 440 360 5 0 0 0 - - -, f 5;
#X obj 540 280 r gaussian_res;
#X obj 440 220 unpack;
#X obj 440 200 r fs_vel_dist;
#X obj 520 60 bng 135 250 50 0 empty empty empty 17 7 0 10 #fcfcfc
#000000 #000000;
#X obj 720 340 util/gaussian;
#X obj 440 320 util/gaussian;
#X obj 40 360 list prepend 0;
#X obj 120 400 list prepend 1;
#X obj 220 420 list prepend 2;
#X obj 320 460 list prepend 3;
#X obj 60 80 t b f b b;
#X connect 1 0 0 0;
#X connect 2 0 3 0;
#X connect 3 0 0 0;
#X connect 4 0 26 0;
#X connect 5 0 27 0;
#X connect 6 0 28 0;
#X connect 7 0 29 0;
#X connect 8 0 24 0;
#X connect 9 0 24 1;
#X connect 11 0 1 0;
#X connect 12 0 0 4;
#X connect 13 0 15 0;
#X connect 14 0 24 2;
#X connect 15 0 8 0;
#X connect 15 1 9 0;
#X connect 16 0 30 0;
#X connect 17 0 25 0;
#X connect 18 0 25 1;
#X connect 19 0 0 2;
#X connect 20 0 25 2;
#X connect 21 0 17 0;
#X connect 21 1 18 0;
#X connect 22 0 21 0;
#X connect 24 0 10 0;
#X connect 24 0 0 3;
#X connect 25 0 19 0;
#X connect 26 0 0 0;
#X connect 28 0 0 0;
#X connect 29 0 0 0;
#X connect 30 0 0 0;
#X connect 30 1 0 1;
#X connect 30 2 23 0;
#X connect 30 2 25 0;
#X connect 30 3 24 0;
