#N canvas 0 60 960 995 12;
#X obj 60 460 four_chords;
#X floatatom 720 280 5 0 0 0 - - -, f 5;
#X floatatom 780 280 5 0 0 0 - - -, f 5;
#X floatatom 720 380 5 0 0 0 - - -, f 5;
#X obj 840 280 r gaussian_res;
#X obj 760 220 unpack;
#X floatatom 440 280 5 0 0 0 - - -, f 5;
#X floatatom 480 280 5 0 0 0 - - -, f 5;
#X floatatom 440 360 5 0 0 0 - - -, f 5;
#X obj 540 280 r gaussian_res;
#X obj 440 220 unpack;
#X obj 520 60 bng 135 250 50 0 empty empty empty 17 7 0 10 #fcfcfc
#000000 #000000;
#X obj 720 340 util/gaussian;
#X obj 440 320 util/gaussian;
#X obj 60 140 t b f b b;
#X obj 60 40 inlet;
#X obj 260 40 inlet;
#X text 60 20 Section index;
#X text 260 20 SectionPerMinute;
#X obj 60 80 route float list symbol;
#X obj 460 40 inlet;
#X text 460 20 Velocity Gaussian dist params;
#X obj 720 40 inlet;
#X text 720 20 Duration Gaussian dist params;
#X obj 40 540 outlet;
#X connect 0 0 24 0;
#X connect 1 0 12 0;
#X connect 2 0 12 1;
#X connect 4 0 12 2;
#X connect 5 0 1 0;
#X connect 5 1 2 0;
#X connect 6 0 13 0;
#X connect 7 0 13 1;
#X connect 8 0 0 2;
#X connect 9 0 13 2;
#X connect 10 0 6 0;
#X connect 10 1 7 0;
#X connect 12 0 3 0;
#X connect 12 0 0 3;
#X connect 13 0 8 0;
#X connect 14 0 0 0;
#X connect 14 1 0 1;
#X connect 14 2 11 0;
#X connect 14 2 13 0;
#X connect 14 3 12 0;
#X connect 15 0 19 0;
#X connect 16 0 0 4;
#X connect 19 0 14 0;
#X connect 19 1 0 0;
#X connect 19 2 0 0;
#X connect 20 0 10 0;
#X connect 22 0 5 0;
