#N canvas 0 60 960 995 12;
#X obj 532 383 select;
#X obj 100 540 bng 45 250 50 0 empty empty empty 17 7 0 10 #fcfcfc
#000000 #000000;
#N canvas 0 0 450 300 (subpatch) 0;
#X array array-bb 100 float 3 black #00ff0d;
#A 0 0 0 0 0 0 0 0 0 0 0 0 0 0 0 0 0 0 0 0 0 0 0 0 0 0 0 0 0 0 0 0
0 0 0 0 0 0 0 0 0 0 0 0 0 0 0 0 0 0 0 0 0 0 0 0 0 0 0 0 0 0 0 0 0 0
0 0 0 0 0 0 0 0 0 0 0 0 0 0 0 0 0 0 0 0 0 0 0 0 0 0 0 0 0 0 0 0 0 0
0;
#X coords 0 1 100 -1 200 140 1;
#X restore 632 343 graph;
#X obj 492 523 array random \$0-drum;
#X msg 576 462 symbol array-bb;
#X floatatom 492 603 5 0 0 0 - - -, f 5;
#N canvas 0 0 450 300 (subpatch) 0;
#X array \$0-arr_gaussian 1 float 7 #000000 #00ff15;
#A 0 0.108973;
#X coords 0 1 1 0 200 140 1;
#X restore 340 640 graph;
#X obj 180 560 bng 62 250 50 0 empty empty empty 17 7 0 10 #fcfcfc
#000000 #000000;
#X obj 220 400 r beat;
#X obj 340 200 random 100;
#X obj 335 270 / 100;
#X floatatom 600 800 5 0 100 0 - - -, f 5;
#X obj 594 599 bng 15 250 50 0 empty empty empty 17 7 0 10 #fcfcfc
#000000 #000000;
#X floatatom 607 648 5 0 0 0 - - -, f 5;
#X floatatom 644 671 5 0 0 0 - - -, f 5;
#X text 618 594 bang to generate a random value;
#X msg 601 620 seed 56;
#X text 669 620 set random seed;
#X text 718 733 same creation arguments;
#X text 652 645 onset;
#X text 690 669 number of points;
#X msg 695 693 symbol array-help-2;
#X text 859 692 set name or pointer;
#X obj 600 720 array random \$0-arr_gaussian, f 13;
#X floatatom 280 640 5 0 0 0 - - -, f 5;
#X floatatom 180 660 5 0 0 0 - - -, f 5;
#N canvas 735 423 450 300 (subpatch) 0;
#X array \$0-arr_custom 12 float 7 black #31ff00;
#A 0 0 0 0 0 0 0 0.00714254 0.0142851 0 0 0 0;
#X coords 0 1 12 0 200 140 1;
#X restore 100 200 graph;
#X obj 60 740 util/array_set_gaussian \$0-arr_gaussian;
#X connect 1 0 27 0;
#X connect 3 0 5 0;
#X connect 4 0 3 2;
#X connect 7 0 25 0;
#X connect 8 0 7 0;
#X connect 9 0 10 0;
#X connect 12 0 23 0;
#X connect 13 0 23 0;
#X connect 14 0 23 1;
#X connect 16 0 23 0;
#X connect 21 0 23 2;
#X connect 23 0 11 0;
#X connect 24 0 27 1;
#X connect 25 0 27 0;
