#N canvas 697 222 1119 616 12;
#X obj 719 313 openpanel;
#X obj 719 284 bng 15 250 50 0 empty empty empty 17 7 0 10 -262144
-1 -1;
#X msg 719 344 open \$1;
#X obj 620 451 dac~, f 5;
#X obj 687 454 bng 15 250 50 0 empty empty empty 17 7 0 10 -262144
-1 -1;
#X msg 620 248 open ./Jocaste_28_03_19.wav;
#X obj 620 376 readsf~ 2, f 10;
#X msg 504 247 start;
#X msg 551 356 stop;
#X obj 504 208 trigger bang bang;
#X obj 504 176 tgl 15 0 empty empty empty 17 7 0 10 -262144 -1 -1 0
1;
#X obj 71 256 soundfiler;
#X msg 71 223 read -resize ./Jocaste_28_03_19.wav mySong;
#X obj 72 287 bng 15 250 50 0 empty empty empty 17 7 0 10 -262144 -1
-1;
#X obj 72 310 tabplay~ mySong;
#X obj 72 344 dac~;
#X obj 157 256 table mySong;
#X connect 0 0 2 0;
#X connect 1 0 0 0;
#X connect 2 0 6 0;
#X connect 5 0 6 0;
#X connect 6 0 3 0;
#X connect 6 1 3 1;
#X connect 6 2 4 0;
#X connect 7 0 6 0;
#X connect 8 0 6 0;
#X connect 9 0 7 0;
#X connect 9 1 5 0;
#X connect 10 0 9 0;
#X connect 12 0 11 0;
#X connect 13 0 14 0;
#X connect 14 0 15 0;
#X connect 14 0 15 1;
