#N canvas 1134 246 786 691 12;
#X obj 338 360 tgl 15 0 empty empty empty 17 7 0 10 -262144 -1 -1 0
1;
#X obj 338 390 metro;
#X floatatom 370 359 5 0 0 0 - - -;
#X obj 338 421 s kick;
#X obj 104 183 r kick;
#X obj 105 399 *~;
#X obj 126 361 hsl 128 15 0 1 0 0 empty empty empty -2 -8 0 10 -262144
-1 -1 5700 1;
#X obj 106 431 dac~;
#X obj 104 210 bng 15 250 50 0 empty empty empty 17 7 0 10 -262144
-1 -1;
#N canvas 183 259 896 723 kick 1;
#X obj 285 369 phasor~;
#X obj 285 399 expr~ $V1 > 0.5;
#X obj 285 526 *~;
#X floatatom 303 90 5 0 0 0 - - -;
#X text 345 91 Decay;
#N canvas 1426 627 450 300 volume_env 0;
#X obj 67 73 inlet;
#X obj 67 139 vline~;
#X msg 67 108 0.5 \, 1 5 \, 0.5 60 5 \, 0 \$1 65;
#X text 120 138 ADSR with variable decay;
#X obj 67 205 outlet~;
#X obj 66 170 *~;
#X connect 0 0 2 0;
#X connect 1 0 5 0;
#X connect 1 0 5 1;
#X connect 2 0 1 0;
#X connect 5 0 4 0;
#X restore 178 190 pd volume_env;
#N canvas 305 405 493 388 pitch_env 0;
#X obj 67 41 inlet;
#X obj 67 107 vline~;
#X obj 67 308 outlet~;
#X msg 67 76 1 \, 0.5 5 \, 0 \$1 5;
#X obj 66 183 *~ 80;
#X obj 66 222 +~ 29;
#X obj 67 265 mtof~;
#X text 115 264 Convert Midi to frequency;
#X obj 67 142 *~;
#X text 115 221 Midi pitch from 109 down to 29;
#X connect 0 0 3 0;
#X connect 1 0 8 0;
#X connect 1 0 8 1;
#X connect 3 0 1 0;
#X connect 4 0 5 0;
#X connect 5 0 6 0;
#X connect 6 0 2 0;
#X connect 8 0 4 0;
#X restore 285 190 pd pitch_env;
#X obj 285 130 f;
#X obj 286 297 *~ 1;
#X floatatom 311 268 5 0 0 2 pitch_scale - -;
#X floatatom 487 255 5 0 0 2 filter_scale - -;
#X obj 462 283 *~ 1;
#X obj 286 433 vcf~ 0.5;
#X obj 130 320 noise~;
#X obj 129 383 *~;
#X floatatom 538 363 5 0 0 2 sine_scale - -;
#X obj 513 391 *~ 1;
#X obj 513 416 osc~;
#X obj 487 208 inlet;
#X obj 537 320 inlet;
#X obj 311 228 inlet;
#X obj 303 60 inlet;
#X obj 147 349 inlet;
#X obj 284 551 outlet~;
#X obj 65 49 inlet;
#X connect 0 0 1 0;
#X connect 1 0 12 0;
#X connect 2 0 23 0;
#X connect 3 0 7 1;
#X connect 5 0 2 0;
#X connect 6 0 8 0;
#X connect 6 0 11 0;
#X connect 7 0 6 0;
#X connect 7 0 5 0;
#X connect 8 0 0 0;
#X connect 8 0 16 0;
#X connect 9 0 8 1;
#X connect 10 0 11 1;
#X connect 11 0 12 1;
#X connect 12 1 2 1;
#X connect 13 0 14 0;
#X connect 14 0 12 0;
#X connect 15 0 16 1;
#X connect 16 0 17 0;
#X connect 17 0 2 1;
#X connect 18 0 10 0;
#X connect 19 0 15 0;
#X connect 20 0 9 0;
#X connect 21 0 3 0;
#X connect 22 0 14 1;
#X connect 24 0 7 0;
#X restore 104 288 pd kick;
#X f 63;
#X obj 279 99 vsl 15 128 0 2000 0 0 empty decay decay 0 -9 0 10 -228856
-1 -1 9525 1;
#X obj 366 101 vsl 15 128 0 3 0 0 empty pitch_scale pitch_scale 0 -9
0 10 -204786 -1 -1 1693 1;
#X obj 454 99 vsl 15 128 0 3 0 0 empty filter_scale filter_scale 0
-9 0 10 -261234 -1 -1 2963 1;
#X obj 542 100 vsl 15 128 0 3 0 0 empty sine_scale sine_scale 0 -9
0 10 -204800 -1 -1 3810 1;
#X obj 191 99 vsl 15 128 0 1 0 0 empty noise_level noise_level 0 -9
0 10 -232576 -1 -1 6350 1;
#X text 187 63 [0 \, 1];
#X text 272 62 [0 \, 1000];
#X text 361 63 [0 \, 3];
#X text 450 63 [0 \, 3];
#X text 536 63 [0 \, 3];
#X floatatom 191 249 5 0 0 0 - - -;
#X floatatom 279 248 5 0 0 0 - - -;
#X floatatom 366 253 5 0 0 0 - - -;
#X floatatom 454 249 5 0 0 0 - - -;
#X floatatom 542 253 5 0 0 0 - - -;
#X msg 440 356 \; noise_level 0.5 \; decay 1500 \; pitch_scale 0.4
\; filter_scale 0.7 \; sine_scale 0.9 \;;
#X connect 0 0 1 0;
#X connect 1 0 3 0;
#X connect 2 0 1 1;
#X connect 4 0 8 0;
#X connect 5 0 7 0;
#X connect 5 0 7 1;
#X connect 6 0 5 1;
#X connect 8 0 9 0;
#X connect 9 0 5 0;
#X connect 10 0 21 0;
#X connect 11 0 22 0;
#X connect 12 0 23 0;
#X connect 13 0 24 0;
#X connect 14 0 20 0;
#X connect 20 0 9 1;
#X connect 21 0 9 2;
#X connect 22 0 9 3;
#X connect 23 0 9 4;
#X connect 24 0 9 5;
